<svg width="410" height="49" viewBox="0 0 410 49" fill="none" xmlns="http://www.w3.org/2000/svg">
<g filter="url(#filter0_i_2_4)">
<path d="M15.535 48C14.9717 48 14.4733 47.87 14.04 47.61C13.6067 47.3067 13.39 46.8733 13.39 46.31V4.515H2.47C1.95 4.515 1.53833 4.32 1.235 3.93C0.931667 3.49666 0.78 3.02 0.78 2.5C0.78 1.98 0.931667 1.525 1.235 1.135C1.53833 0.701666 1.95 0.485 2.47 0.485H28.535C29.0983 0.485 29.51 0.701666 29.77 1.135C30.03 1.525 30.16 1.95833 30.16 2.435C30.16 2.955 30.03 3.43167 29.77 3.865C29.51 4.29833 29.0983 4.515 28.535 4.515H17.68V46.31C17.68 46.8733 17.4417 47.3067 16.965 47.61C16.5317 47.87 16.055 48 15.535 48Z" fill="#F57B0A"/>
<path d="M48.9166 48.39C46.4899 48.39 44.2366 47.935 42.1566 47.025C40.0766 46.115 38.4299 44.6417 37.2166 42.605C36.0032 40.5683 35.3966 37.86 35.3966 34.48V14.395C35.3966 11.015 36.0249 8.30667 37.2816 6.27C38.5382 4.23333 40.1849 2.76 42.2216 1.85C44.3016 0.939999 46.5766 0.485 49.0466 0.485C51.9066 0.485 54.3332 0.983333 56.3266 1.98C58.3199 2.97666 59.8366 4.29833 60.8766 5.945C61.9599 7.59167 62.5016 9.41166 62.5016 11.405C62.5016 12.445 62.3066 13.1383 61.9166 13.485C61.5699 13.7883 61.0499 13.94 60.3566 13.94C59.5766 13.94 59.0132 13.7883 58.6666 13.485C58.3632 13.1383 58.1899 12.7483 58.1466 12.315C58.1466 11.6217 58.0166 10.8417 57.7566 9.975C57.5399 9.065 57.1066 8.19833 56.4566 7.375C55.8499 6.50833 54.9399 5.815 53.7266 5.295C52.5566 4.73167 51.0182 4.45 49.1116 4.45C46.0782 4.45 43.7599 5.27333 42.1566 6.92C40.5532 8.52333 39.7516 11.015 39.7516 14.395V34.48C39.7516 37.9033 40.5532 40.4167 42.1566 42.02C43.8032 43.6233 46.1866 44.425 49.3066 44.425C51.2566 44.425 52.7949 44.165 53.9216 43.645C55.0482 43.0817 55.8932 42.41 56.4566 41.63C57.0199 40.8067 57.4099 39.94 57.6266 39.03C57.8866 38.0767 58.0599 37.21 58.1466 36.43C58.2332 35.8667 58.4282 35.455 58.7316 35.195C59.0782 34.8917 59.5982 34.74 60.2916 34.74C61.0282 34.74 61.5699 34.935 61.9166 35.325C62.3066 35.6717 62.5016 36.365 62.5016 37.405C62.5016 39.355 61.9599 41.175 60.8766 42.865C59.7932 44.5117 58.2332 45.855 56.1966 46.895C54.2032 47.8917 51.7766 48.39 48.9166 48.39ZM80.337 48.455C78.127 48.455 76.0903 47.8917 74.227 46.765C72.3636 45.595 70.847 44.0783 69.677 42.215C68.5503 40.3083 67.987 38.2717 67.987 36.105V29.085C67.987 26.875 68.5286 24.86 69.612 23.04C70.7386 21.1767 72.2336 19.6817 74.097 18.555C76.0036 17.4283 78.0836 16.865 80.337 16.865C82.547 16.865 84.5836 17.4283 86.447 18.555C88.3536 19.6383 89.8703 21.09 90.997 22.91C92.1236 24.73 92.687 26.7883 92.687 29.085V36.105C92.687 38.2283 92.1236 40.2433 90.997 42.15C89.8703 44.0567 88.3536 45.595 86.447 46.765C84.5836 47.8917 82.547 48.455 80.337 48.455ZM80.337 44.555C81.8536 44.555 83.2186 44.165 84.432 43.385C85.6453 42.5617 86.6203 41.5 87.357 40.2C88.0936 38.9 88.462 37.535 88.462 36.105V29.085C88.462 27.655 88.0936 26.3117 87.357 25.055C86.6636 23.7983 85.6886 22.78 84.432 22C83.2186 21.1767 81.8536 20.765 80.337 20.765C78.8203 20.765 77.4553 21.1767 76.242 22C75.0286 22.78 74.0536 23.7983 73.317 25.055C72.5803 26.3117 72.212 27.655 72.212 29.085V36.105C72.212 37.535 72.5803 38.9 73.317 40.2C74.0536 41.5 75.0286 42.5617 76.242 43.385C77.4986 44.165 78.8636 44.555 80.337 44.555ZM101.706 48C101.142 48 100.644 47.8267 100.211 47.48C99.8207 47.1333 99.6257 46.7433 99.6257 46.31V18.88C99.6257 18.36 99.8207 17.97 100.211 17.71C100.644 17.4067 101.142 17.255 101.706 17.255C102.269 17.255 102.746 17.4067 103.136 17.71C103.526 17.97 103.721 18.36 103.721 18.88V21.805C104.414 20.5483 105.497 19.4217 106.971 18.425C108.444 17.385 110.264 16.865 112.431 16.865C114.511 16.865 116.417 17.4283 118.151 18.555C119.927 19.6383 121.336 21.1117 122.376 22.975C123.416 24.795 123.936 26.8317 123.936 29.085V46.31C123.936 46.8733 123.719 47.3067 123.286 47.61C122.852 47.87 122.354 48 121.791 48C121.314 48 120.837 47.87 120.361 47.61C119.927 47.3067 119.711 46.8733 119.711 46.31V29.085C119.711 27.655 119.342 26.3117 118.606 25.055C117.869 23.7983 116.894 22.78 115.681 22C114.467 21.1767 113.124 20.765 111.651 20.765C110.351 20.765 109.094 21.1117 107.881 21.805C106.711 22.455 105.736 23.3867 104.956 24.6C104.219 25.8133 103.851 27.3083 103.851 29.085V46.31C103.851 46.7433 103.634 47.1333 103.201 47.48C102.811 47.8267 102.312 48 101.706 48ZM143.315 48.455C140.455 48.455 138.093 47.9133 136.23 46.83C134.367 45.7467 132.98 44.2733 132.07 42.41C131.16 40.5467 130.705 38.445 130.705 36.105V29.215C130.705 26.875 131.138 24.7733 132.005 22.91C132.915 21.0467 134.302 19.5733 136.165 18.49C138.072 17.4067 140.455 16.865 143.315 16.865C145.135 16.865 146.717 17.1033 148.06 17.58C149.447 18.0133 150.508 18.555 151.245 19.205C152.025 19.855 152.415 20.4833 152.415 21.09C152.415 21.3933 152.328 21.7183 152.155 22.065C152.025 22.3683 151.808 22.6283 151.505 22.845C151.245 23.0617 150.942 23.17 150.595 23.17C150.205 23.17 149.75 22.975 149.23 22.585C148.753 22.1517 148.082 21.74 147.215 21.35C146.348 20.96 145.113 20.765 143.51 20.765C140.693 20.765 138.548 21.5233 137.075 23.04C135.645 24.5133 134.93 26.5717 134.93 29.215V36.105C134.93 38.7483 135.645 40.8283 137.075 42.345C138.548 43.8183 140.715 44.555 143.575 44.555C145.222 44.555 146.5 44.36 147.41 43.97C148.32 43.5367 149.013 43.125 149.49 42.735C150.01 42.3017 150.487 42.085 150.92 42.085C151.31 42.085 151.635 42.1933 151.895 42.41C152.198 42.6267 152.415 42.8867 152.545 43.19C152.718 43.4933 152.805 43.8183 152.805 44.165C152.805 44.7283 152.415 45.3567 151.635 46.05C150.855 46.7 149.75 47.2633 148.32 47.74C146.933 48.2167 145.265 48.455 143.315 48.455ZM170.687 48.455C168.39 48.455 166.289 47.8917 164.382 46.765C162.519 45.6383 161.024 44.1433 159.897 42.28C158.814 40.3733 158.272 38.3583 158.272 36.235V18.945C158.272 18.5117 158.489 18.1217 158.922 17.775C159.355 17.4283 159.854 17.255 160.417 17.255C160.98 17.255 161.457 17.4283 161.847 17.775C162.28 18.1217 162.497 18.5117 162.497 18.945V36.235C162.497 37.665 162.865 39.0083 163.602 40.265C164.339 41.5217 165.314 42.5617 166.527 43.385C167.74 44.165 169.105 44.555 170.622 44.555C172.182 44.555 173.569 44.165 174.782 43.385C175.995 42.605 176.949 41.5867 177.642 40.33C178.379 39.03 178.747 37.665 178.747 36.235V18.88C178.747 18.4033 178.964 18.0133 179.397 17.71C179.83 17.4067 180.329 17.255 180.892 17.255C181.542 17.255 182.04 17.4067 182.387 17.71C182.777 18.0133 182.972 18.4033 182.972 18.88V36.235C182.972 38.445 182.409 40.4817 181.282 42.345C180.199 44.165 178.704 45.6383 176.797 46.765C174.934 47.8917 172.897 48.455 170.687 48.455ZM192.858 48C192.295 48 191.796 47.8267 191.363 47.48C190.973 47.1333 190.778 46.7433 190.778 46.31V18.88C190.778 18.36 190.973 17.97 191.363 17.71C191.796 17.4067 192.295 17.255 192.858 17.255C193.421 17.255 193.898 17.4067 194.288 17.71C194.678 17.97 194.873 18.36 194.873 18.88V22.065C195.35 21.155 196 20.31 196.823 19.53C197.646 18.75 198.621 18.1217 199.748 17.645C200.875 17.125 202.153 16.865 203.583 16.865H205.858C206.335 16.865 206.725 17.06 207.028 17.45C207.375 17.84 207.548 18.295 207.548 18.815C207.548 19.3783 207.375 19.855 207.028 20.245C206.725 20.5917 206.335 20.765 205.858 20.765H203.583C202.153 20.765 200.766 21.155 199.423 21.935C198.123 22.715 197.061 23.7983 196.238 25.185C195.415 26.5717 195.003 28.2617 195.003 30.255V46.31C195.003 46.7433 194.786 47.1333 194.353 47.48C193.963 47.8267 193.465 48 192.858 48ZM220.364 48.455C218.328 48.455 216.529 48.195 214.969 47.675C213.453 47.155 212.261 46.5483 211.394 45.855C210.571 45.1183 210.159 44.425 210.159 43.775C210.159 43.4717 210.224 43.19 210.354 42.93C210.484 42.6267 210.658 42.3667 210.874 42.15C211.134 41.9333 211.394 41.825 211.654 41.825C212.131 41.825 212.651 42.085 213.214 42.605C213.821 43.0817 214.644 43.58 215.684 44.1C216.768 44.62 218.284 44.88 220.234 44.88C222.704 44.88 224.438 44.425 225.434 43.515C226.431 42.5617 226.929 41.4783 226.929 40.265C226.929 38.835 226.539 37.73 225.759 36.95C225.023 36.1267 224.026 35.4983 222.769 35.065C221.556 34.6317 220.256 34.22 218.869 33.83C217.526 33.44 216.226 32.9633 214.969 32.4C213.756 31.8367 212.759 31.035 211.979 29.995C211.243 28.9117 210.874 27.4817 210.874 25.705C210.874 24.3183 211.221 22.9533 211.914 21.61C212.608 20.2667 213.691 19.14 215.164 18.23C216.681 17.32 218.674 16.865 221.144 16.865C222.574 16.865 223.961 17.0167 225.304 17.32C226.648 17.6233 227.731 18.035 228.554 18.555C229.421 19.0317 229.854 19.5517 229.854 20.115C229.854 20.2883 229.768 20.57 229.594 20.96C229.464 21.3067 229.269 21.61 229.009 21.87C228.749 22.13 228.446 22.26 228.099 22.26C227.753 22.26 227.276 22.1083 226.669 21.805C226.106 21.5017 225.369 21.1983 224.459 20.895C223.549 20.5917 222.466 20.44 221.209 20.44C219.649 20.44 218.393 20.7217 217.439 21.285C216.486 21.8483 215.793 22.52 215.359 23.3C214.926 24.08 214.709 24.8383 214.709 25.575C214.709 26.7883 215.099 27.72 215.879 28.37C216.659 29.02 217.656 29.5617 218.869 29.995C220.126 30.385 221.426 30.775 222.769 31.165C224.156 31.5117 225.456 32.01 226.669 32.66C227.926 33.31 228.923 34.22 229.659 35.39C230.439 36.56 230.829 38.12 230.829 40.07C230.829 42.6267 229.919 44.6633 228.099 46.18C226.279 47.6967 223.701 48.455 220.364 48.455ZM248.296 48.455C246.086 48.455 244.049 47.8917 242.186 46.765C240.323 45.595 238.806 44.0783 237.636 42.215C236.509 40.3083 235.946 38.2717 235.946 36.105V29.085C235.946 26.875 236.488 24.86 237.571 23.04C238.698 21.1767 240.193 19.6817 242.056 18.555C243.963 17.4283 246.043 16.865 248.296 16.865C250.506 16.865 252.543 17.4283 254.406 18.555C256.313 19.6383 257.829 21.09 258.956 22.91C260.083 24.73 260.646 26.7883 260.646 29.085V36.105C260.646 38.2283 260.083 40.2433 258.956 42.15C257.829 44.0567 256.313 45.595 254.406 46.765C252.543 47.8917 250.506 48.455 248.296 48.455ZM248.296 44.555C249.813 44.555 251.178 44.165 252.391 43.385C253.604 42.5617 254.579 41.5 255.316 40.2C256.053 38.9 256.421 37.535 256.421 36.105V29.085C256.421 27.655 256.053 26.3117 255.316 25.055C254.623 23.7983 253.648 22.78 252.391 22C251.178 21.1767 249.813 20.765 248.296 20.765C246.779 20.765 245.414 21.1767 244.201 22C242.988 22.78 242.013 23.7983 241.276 25.055C240.539 26.3117 240.171 27.655 240.171 29.085V36.105C240.171 37.535 240.539 38.9 241.276 40.2C242.013 41.5 242.988 42.5617 244.201 43.385C245.458 44.165 246.823 44.555 248.296 44.555Z" fill="#6C77DD"/>
<path d="M283.652 48C283.089 48 282.591 47.87 282.157 47.61C281.724 47.3067 281.507 46.8733 281.507 46.31V2.11C281.507 1.50333 281.724 1.09166 282.157 0.874998C282.591 0.614999 283.089 0.485 283.652 0.485C284.172 0.485 284.627 0.636666 285.017 0.939998C285.407 1.2 285.776 1.56833 286.122 2.045C286.469 2.47833 286.772 2.97667 287.032 3.54L304.582 38.055V2.11C304.582 1.54666 304.799 1.135 305.232 0.874998C305.666 0.614999 306.164 0.485 306.727 0.485C307.247 0.485 307.724 0.614999 308.157 0.874998C308.634 1.135 308.872 1.54666 308.872 2.11V46.31C308.872 46.8733 308.634 47.3067 308.157 47.61C307.724 47.87 307.247 48 306.727 48C306.121 48 305.557 47.7617 305.037 47.285C304.561 46.765 304.171 46.18 303.867 45.53L285.797 10.365V46.31C285.797 46.8733 285.559 47.3067 285.082 47.61C284.649 47.87 284.172 48 283.652 48ZM330.474 48.455C327.744 48.455 325.318 47.935 323.194 46.895C321.114 45.855 319.468 44.425 318.254 42.605C317.084 40.7417 316.499 38.575 316.499 36.105V28.89C316.499 26.7233 317.063 24.73 318.189 22.91C319.316 21.0467 320.811 19.5733 322.674 18.49C324.581 17.4067 326.661 16.865 328.914 16.865C331.081 16.865 333.074 17.385 334.894 18.425C336.758 19.4217 338.253 20.8083 339.379 22.585C340.506 24.3617 341.069 26.42 341.069 28.76C341.069 30.4067 340.788 31.5983 340.224 32.335C339.661 33.0717 338.946 33.5267 338.079 33.7C337.256 33.83 336.368 33.895 335.414 33.895H320.724V36.3C320.724 38.9 321.656 40.9583 323.519 42.475C325.383 43.9917 327.744 44.75 330.604 44.75C332.338 44.75 333.681 44.5333 334.634 44.1C335.588 43.6667 336.324 43.2333 336.844 42.8C337.408 42.3667 337.928 42.15 338.404 42.15C338.751 42.15 339.054 42.28 339.314 42.54C339.618 42.7567 339.834 43.0167 339.964 43.32C340.138 43.6233 340.224 43.905 340.224 44.165C340.224 44.6417 339.834 45.2267 339.054 45.92C338.274 46.6133 337.148 47.22 335.674 47.74C334.201 48.2167 332.468 48.455 330.474 48.455ZM320.724 30.775H333.724C335.024 30.775 335.891 30.645 336.324 30.385C336.758 30.0817 336.974 29.475 336.974 28.565C336.974 27.1783 336.628 25.8783 335.934 24.665C335.241 23.4083 334.288 22.39 333.074 21.61C331.861 20.7867 330.453 20.375 328.849 20.375C327.376 20.375 326.011 20.7433 324.754 21.48C323.541 22.2167 322.566 23.17 321.829 24.34C321.093 25.51 320.724 26.8317 320.724 28.305V30.775ZM356.475 48.52C356.041 48.52 355.673 48.4333 355.37 48.26C355.11 48.0867 354.871 47.74 354.655 47.22L344.58 20.05C344.493 19.8767 344.428 19.7033 344.385 19.53C344.341 19.3133 344.32 19.1617 344.32 19.075C344.32 18.685 344.45 18.36 344.71 18.1C344.97 17.7967 345.295 17.5583 345.685 17.385C346.075 17.2117 346.465 17.125 346.855 17.125C347.158 17.125 347.461 17.2117 347.765 17.385C348.068 17.5583 348.263 17.7967 348.35 18.1L356.67 41.24L363.3 20.115C363.43 19.725 363.646 19.4433 363.95 19.27C364.253 19.0967 364.621 19.01 365.055 19.01C365.445 19.01 365.791 19.0967 366.095 19.27C366.398 19.4433 366.615 19.725 366.745 20.115L373.18 41.5L381.63 18.1C381.846 17.45 382.345 17.125 383.125 17.125C383.471 17.125 383.84 17.2117 384.23 17.385C384.663 17.5583 385.01 17.775 385.27 18.035C385.53 18.295 385.66 18.62 385.66 19.01C385.66 19.1833 385.616 19.3783 385.53 19.595C385.486 19.7683 385.443 19.92 385.4 20.05L375.26 47.48C375.13 47.87 374.891 48.13 374.545 48.26C374.241 48.4333 373.916 48.52 373.57 48.52C373.136 48.52 372.768 48.4333 372.465 48.26C372.161 48.0867 371.945 47.8483 371.815 47.545L365.055 26.42L358.36 47.22C358.23 47.6533 357.991 47.9783 357.645 48.195C357.298 48.4117 356.908 48.52 356.475 48.52ZM399.051 48.455C397.014 48.455 395.216 48.195 393.656 47.675C392.139 47.155 390.947 46.5483 390.081 45.855C389.257 45.1183 388.846 44.425 388.846 43.775C388.846 43.4717 388.911 43.19 389.041 42.93C389.171 42.6267 389.344 42.3667 389.561 42.15C389.821 41.9333 390.081 41.825 390.341 41.825C390.817 41.825 391.337 42.085 391.901 42.605C392.507 43.0817 393.331 43.58 394.371 44.1C395.454 44.62 396.971 44.88 398.921 44.88C401.391 44.88 403.124 44.425 404.121 43.515C405.117 42.5617 405.616 41.4783 405.616 40.265C405.616 38.835 405.226 37.73 404.446 36.95C403.709 36.1267 402.712 35.4983 401.456 35.065C400.242 34.6317 398.942 34.22 397.556 33.83C396.212 33.44 394.912 32.9633 393.656 32.4C392.442 31.8367 391.446 31.035 390.666 29.995C389.929 28.9117 389.561 27.4817 389.561 25.705C389.561 24.3183 389.907 22.9533 390.601 21.61C391.294 20.2667 392.377 19.14 393.851 18.23C395.367 17.32 397.361 16.865 399.831 16.865C401.261 16.865 402.647 17.0167 403.991 17.32C405.334 17.6233 406.417 18.035 407.241 18.555C408.107 19.0317 408.541 19.5517 408.541 20.115C408.541 20.2883 408.454 20.57 408.281 20.96C408.151 21.3067 407.956 21.61 407.696 21.87C407.436 22.13 407.132 22.26 406.786 22.26C406.439 22.26 405.962 22.1083 405.356 21.805C404.792 21.5017 404.056 21.1983 403.146 20.895C402.236 20.5917 401.152 20.44 399.896 20.44C398.336 20.44 397.079 20.7217 396.126 21.285C395.172 21.8483 394.479 22.52 394.046 23.3C393.612 24.08 393.396 24.8383 393.396 25.575C393.396 26.7883 393.786 27.72 394.566 28.37C395.346 29.02 396.342 29.5617 397.556 29.995C398.812 30.385 400.112 30.775 401.456 31.165C402.842 31.5117 404.142 32.01 405.356 32.66C406.612 33.31 407.609 34.22 408.346 35.39C409.126 36.56 409.516 38.12 409.516 40.07C409.516 42.6267 408.606 44.6633 406.786 46.18C404.966 47.6967 402.387 48.455 399.051 48.455Z" fill="#896CDD"/>
</g>
<defs>
<filter id="filter0_i_2_4" x="0.779999" y="0.485001" width="408.736" height="49.035" filterUnits="userSpaceOnUse" color-interpolation-filters="sRGB">
<feFlood flood-opacity="0" result="BackgroundImageFix"/>
<feBlend mode="normal" in="SourceGraphic" in2="BackgroundImageFix" result="shape"/>
<feColorMatrix in="SourceAlpha" type="matrix" values="0 0 0 0 0 0 0 0 0 0 0 0 0 0 0 0 0 0 127 0" result="hardAlpha"/>
<feOffset dy="10"/>
<feGaussianBlur stdDeviation="0.5"/>
<feComposite in2="hardAlpha" operator="arithmetic" k2="-1" k3="1"/>
<feColorMatrix type="matrix" values="0 0 0 0 0 0 0 0 0 0 0 0 0 0 0 0 0 0 0.2 0"/>
<feBlend mode="normal" in2="shape" result="effect1_innerShadow_2_4"/>
</filter>
</defs>
</svg>
